<svg width="50" height="52" viewBox="0 0 50 52" fill="none" xmlns="http://www.w3.org/2000/svg">
<path d="M35.2153 28.1932H14.6956C14.3701 28.1932 14.1143 27.9374 14.1143 27.6119C14.1143 27.2863 14.3701 27.0305 14.6956 27.0305H35.2041C35.5296 27.0305 35.7854 27.2863 35.7854 27.6119C35.7854 27.9374 35.5296 28.1932 35.2158 28.1932H35.2153ZM35.2153 24.1241H14.6956C14.3701 24.1241 14.1143 23.8683 14.1143 23.5428C14.1143 23.2172 14.3701 22.9614 14.6956 22.9614H35.2041C35.5296 22.9614 35.7854 23.2172 35.7854 23.5428C35.7854 23.8683 35.5296 24.1241 35.2158 24.1241H35.2153Z" fill="#FAFF00"/>
<path d="M13.5442 33.4829H12.2539C11.3006 33.4829 10.5215 32.7041 10.5215 31.7505V19.4148C10.5215 18.4616 11.3003 17.6824 12.2539 17.6824H13.5442C14.4974 17.6824 15.2766 18.4612 15.2766 19.4148V31.7505C15.2766 32.7041 14.5091 33.4829 13.5442 33.4829ZM12.2539 18.8452C11.94 18.8452 11.6842 19.101 11.6842 19.4149V31.7618C11.6842 32.0757 11.94 32.3315 12.2539 32.3315H13.5442C13.8581 32.3315 14.1139 32.0757 14.1139 31.7618V19.4149C14.1139 19.101 13.8581 18.8452 13.5442 18.8452H12.2539Z" fill="#FAFF00"/>
<path d="M9.95145 31.2164H8.66108C7.70787 31.2164 6.92871 30.4376 6.92871 29.484V21.6827C6.92871 20.7295 7.70749 19.9504 8.66108 19.9504H9.95145C10.9047 19.9504 11.6838 20.7292 11.6838 21.6827C11.6838 22.0083 11.428 22.2641 11.1025 22.2641C10.7769 22.2641 10.5211 22.0083 10.5211 21.6827C10.5211 21.3689 10.2653 21.1131 9.95144 21.1131L8.66107 21.1134C8.34722 21.1134 8.09139 21.3693 8.09139 21.6831V29.4844C8.09139 29.7983 8.34722 30.0541 8.66107 30.0541H9.95144C10.2653 30.0541 10.5211 29.7983 10.5211 29.4844C10.5211 29.1589 10.7769 28.9031 11.1025 28.9031C11.428 28.9031 11.6838 29.1589 11.6838 29.4844C11.6838 30.4376 10.905 31.2164 9.95145 31.2164Z" fill="#FAFF00"/>
<path d="M6.35966 29.6468H5.06928C4.11607 29.6468 3.33691 28.868 3.33691 27.9144V23.2524C3.33691 22.2992 4.11569 21.52 5.06928 21.52H6.35966C7.31286 21.52 8.09202 22.2988 8.09202 23.2524C8.09202 23.5779 7.8362 23.8337 7.51067 23.8337C7.18514 23.8337 6.92932 23.5779 6.92932 23.2524C6.92932 22.9385 6.6735 22.6827 6.35965 22.6827H5.06927C4.75542 22.6827 4.4996 22.9385 4.4996 23.2524V27.9144C4.4996 28.2283 4.75542 28.4841 5.06927 28.4841H6.35965C6.6735 28.4841 6.92932 28.2283 6.92932 27.9144C6.92932 27.5889 7.18514 27.3331 7.51067 27.3331C7.8362 27.3331 8.09202 27.5889 8.09202 27.9144C8.09202 28.868 7.31288 29.6468 6.35966 29.6468Z" fill="#FAFF00"/>
<path d="M3.918 28.1932H0.581351C0.255824 28.1932 0 27.9374 0 27.6119V23.5428C0 23.2172 0.255824 22.9614 0.581351 22.9614H3.918C4.24353 22.9614 4.49935 23.2172 4.49935 23.5428C4.49935 23.8683 4.24353 24.1241 3.918 24.1241H1.16273V27.0305H3.918C4.24353 27.0305 4.49935 27.2863 4.49935 27.6118C4.49935 27.9373 4.24353 28.1932 3.918 28.1932Z" fill="#FAFF00"/>
<path d="M35.2153 10.521H14.6956C14.3701 10.521 14.1143 10.2652 14.1143 9.93969C14.1143 9.61416 14.3701 9.35834 14.6956 9.35834H35.2041C35.5296 9.35834 35.7854 9.61416 35.7854 9.93969C35.7854 10.2652 35.5296 10.521 35.2158 10.521H35.2153ZM35.2153 6.45195H14.6956C14.3701 6.45195 14.1143 6.19612 14.1143 5.8706C14.1143 5.54507 14.3701 5.28925 14.6956 5.28925H35.2041C35.5296 5.28925 35.7854 5.54507 35.7854 5.8706C35.7854 6.19612 35.5296 6.45195 35.2158 6.45195H35.2153Z" fill="#FAFF00"/>
<path d="M13.149 15.8117H11.4166C10.2423 15.8117 9.28906 14.8585 9.28906 13.6841V2.12755C9.28906 0.953208 10.2423 0 11.4166 0H13.149C14.3233 0 15.2765 0.953208 15.2765 2.12755V13.672C15.2765 14.8576 14.3233 15.8109 13.149 15.8109V15.8117ZM11.4166 1.16276C10.882 1.16276 10.4517 1.59302 10.4517 2.12764V13.6721C10.4517 14.2067 10.882 14.637 11.4166 14.637H13.149C13.6836 14.637 14.1139 14.2067 14.1139 13.6721V2.12764C14.1139 1.593 13.6836 1.16276 13.149 1.16276H11.4166Z" fill="#FAFF00"/>
<path d="M8.32378 12.1149H6.59142C5.41707 12.1149 4.46387 11.1617 4.46387 9.98739V5.82524C4.46387 4.6509 5.41707 3.69769 6.59142 3.69769H8.32378C9.49813 3.69769 10.4513 4.6509 10.4513 5.82524C10.4513 6.15077 10.1955 6.40659 9.86998 6.40659C9.54446 6.40659 9.28863 6.15077 9.28863 5.82524C9.28863 5.2906 8.85837 4.86036 8.32375 4.86036L6.59138 4.85999C6.05674 4.85999 5.62649 5.29026 5.62649 5.82488V9.97534C5.62649 10.51 6.05676 10.9402 6.59138 10.9402H8.32375C8.85838 10.9402 9.28863 10.51 9.28863 9.97534C9.28863 9.64982 9.54446 9.39399 9.86998 9.39399C10.1955 9.39399 10.4513 9.64982 10.4513 9.97534C10.4513 11.1614 9.49813 12.1149 8.32378 12.1149Z" fill="#FAFF00"/>
<path d="M38.4947 15.8117H36.7623C35.588 15.8117 34.6348 14.8585 34.6348 13.6841V2.12755C34.6348 0.953208 35.588 0 36.7623 0H38.4947C39.669 0 40.6222 0.953208 40.6222 2.12755V13.672C40.6222 14.8576 39.669 15.8109 38.4947 15.8109V15.8117ZM36.7623 1.16276C36.2277 1.16276 35.7974 1.59302 35.7974 2.12764V13.6721C35.7974 14.2067 36.2277 14.637 36.7623 14.637H38.4947C39.0293 14.637 39.4596 14.2067 39.4596 13.6721V2.12764C39.4596 1.593 39.0293 1.16276 38.4947 1.16276H36.7623Z" fill="#FAFF00"/>
<path d="M43.3306 12.1149H41.5983C40.4239 12.1149 39.4707 11.1617 39.4707 9.98739C39.4707 9.66186 39.7265 9.40603 40.0521 9.40603C40.3776 9.40603 40.6334 9.66186 40.6334 9.98739C40.6334 10.522 41.0637 10.9523 41.5983 10.9523H43.3307C43.8653 10.9523 44.2955 10.522 44.2955 9.98739V5.82524C44.2955 5.2906 43.8653 4.86036 43.3307 4.86036H41.5983C41.0637 4.86036 40.6334 5.29062 40.6334 5.82524C40.6334 6.15077 40.3776 6.40659 40.0521 6.40659C39.7265 6.40659 39.4707 6.15077 39.4707 5.82524C39.4707 4.6509 40.4239 3.69769 41.5983 3.69769H43.3306C44.505 3.69769 45.4582 4.6509 45.4582 5.82524V9.97571C45.4582 11.1614 44.5046 12.1149 43.3306 12.1149Z" fill="#FAFF00"/>
<path d="M35.2153 45.8765H14.6956C14.3701 45.8765 14.1143 45.6207 14.1143 45.2952C14.1143 44.9696 14.3701 44.7138 14.6956 44.7138H35.2041C35.5296 44.7138 35.7854 44.9696 35.7854 45.2952C35.7854 45.6207 35.5296 45.8765 35.2158 45.8765H35.2153ZM35.2153 41.8071H14.6956C14.3701 41.8071 14.1143 41.5512 14.1143 41.2257C14.1143 40.9002 14.3701 40.6443 14.6956 40.6443H35.2041C35.5296 40.6443 35.7854 40.9002 35.7854 41.2257C35.7854 41.5516 35.5296 41.8071 35.2158 41.8071H35.2153Z" fill="#FAFF00"/>
<path d="M13.149 51.1662H11.4166C10.2423 51.1662 9.28906 50.213 9.28906 49.0387V37.4943C9.28906 36.3199 10.2423 35.3667 11.4166 35.3667H13.149C14.3233 35.3667 15.2765 36.3199 15.2765 37.4943V49.0387C15.2765 50.213 14.3233 51.1662 13.149 51.1662ZM11.4166 36.5173C10.882 36.5173 10.4517 36.9476 10.4517 37.4822V49.0266C10.4517 49.5613 10.882 49.9915 11.4166 49.9915H13.149C13.6836 49.9915 14.1139 49.5613 14.1139 49.0266V37.4822C14.1139 36.9476 13.6836 36.5173 13.149 36.5173H11.4166Z" fill="#FAFF00"/>
<path d="M8.32378 47.4695H6.59142C5.41707 47.4695 4.46387 46.5163 4.46387 45.3419V41.1915C4.46387 40.0171 5.41707 39.0639 6.59142 39.0639H8.32378C9.49813 39.0639 10.4513 40.0171 10.4513 41.1915C10.4513 41.517 10.1955 41.7728 9.86998 41.7728C9.54446 41.7728 9.28863 41.517 9.28863 41.1915C9.28863 40.6568 8.85837 40.2266 8.32375 40.2266H6.59138C6.05674 40.2266 5.62649 40.6568 5.62649 41.1915V45.3419C5.62649 45.8766 6.05676 46.3068 6.59138 46.3068H8.32375C8.85838 46.3068 9.28863 45.8765 9.28863 45.3419C9.28863 45.0164 9.54446 44.7606 9.86998 44.7606C10.1955 44.7606 10.4513 45.0164 10.4513 45.3419C10.4513 46.5163 9.49813 47.4695 8.32378 47.4695Z" fill="#FAFF00"/>
<path d="M38.4947 51.1662H36.7623C35.588 51.1662 34.6348 50.213 34.6348 49.0387V37.4943C34.6348 36.3199 35.588 35.3667 36.7623 35.3667H38.4947C39.669 35.3667 40.6222 36.3199 40.6222 37.4943V49.0387C40.6222 50.213 39.669 51.1662 38.4947 51.1662ZM36.7623 36.5173C36.2277 36.5173 35.7974 36.9476 35.7974 37.4822V49.0266C35.7974 49.5613 36.2277 49.9915 36.7623 49.9915H38.4947C39.0293 49.9915 39.4596 49.5613 39.4596 49.0266V37.4822C39.4596 36.9476 39.0293 36.5173 38.4947 36.5173H36.7623Z" fill="#FAFF00"/>
<path d="M43.3306 47.4695H41.5983C40.4239 47.4695 39.4707 46.5163 39.4707 45.3419C39.4707 45.0164 39.7265 44.7606 40.0521 44.7606C40.3776 44.7606 40.6334 45.0164 40.6334 45.3419C40.6334 45.8766 41.0637 46.3068 41.5983 46.3068H43.3307C43.8653 46.3068 44.2955 45.8765 44.2955 45.3419V41.1915C44.2955 40.6568 43.8653 40.2266 43.3307 40.2266H41.5983C41.0637 40.2266 40.6334 40.6568 40.6334 41.1915C40.6334 41.517 40.3776 41.7728 40.0521 41.7728C39.7265 41.7728 39.4707 41.517 39.4707 41.1915C39.4707 40.0171 40.4239 39.0639 41.5983 39.0639H43.3306C44.505 39.0639 45.4582 40.0171 45.4582 41.1915V45.3419C45.4582 46.5163 44.5046 47.4695 43.3306 47.4695Z" fill="#FAFF00"/>
<path d="M37.6575 33.4829H36.3671C35.4139 33.4829 34.6348 32.7041 34.6348 31.7505V19.4148C34.6348 18.4616 35.4135 17.6824 36.3671 17.6824H37.6575C38.6107 17.6824 39.3899 18.4612 39.3899 19.4148V31.7505C39.3899 32.7041 38.6111 33.4829 37.6575 33.4829ZM36.3671 18.8452C36.0533 18.8452 35.7975 19.101 35.7975 19.4149V31.7618C35.7975 32.0757 36.0533 32.3315 36.3671 32.3315H37.6575C37.9714 32.3315 38.2272 32.0757 38.2272 31.7618V19.4149C38.2272 19.101 37.9714 18.8452 37.6575 18.8452H36.3671Z" fill="#FAFF00"/>
<path d="M41.2493 31.2164H39.9589C39.0057 31.2164 38.2266 30.4376 38.2266 29.484C38.2266 29.1585 38.4824 28.9027 38.8079 28.9027C39.1334 28.9027 39.3893 29.1585 39.3893 29.484C39.3893 29.7979 39.6451 30.0537 39.9589 30.0537H41.2493C41.5632 30.0537 41.819 29.7979 41.819 29.484V21.6827C41.819 21.3689 41.5632 21.1131 41.2493 21.1131H39.9589C39.6451 21.1131 39.3893 21.3689 39.3893 21.6827C39.3893 22.0083 39.1334 22.2641 38.8079 22.2641C38.4824 22.2641 38.2266 22.0083 38.2266 21.6827C38.2266 20.7295 39.0053 19.9504 39.9589 19.9504H41.2493C42.2025 19.9504 42.9817 20.7292 42.9817 21.6827V29.484C42.9817 30.4376 42.2029 31.2164 41.2493 31.2164Z" fill="#FAFF00"/>
<path d="M44.8411 29.6468H43.5507C42.5975 29.6468 41.8184 28.868 41.8184 27.9144C41.8184 27.5889 42.0742 27.3331 42.3997 27.3331C42.7252 27.3331 42.9811 27.5889 42.9811 27.9144C42.9811 28.2283 43.2369 28.4841 43.5507 28.4841H44.8411C45.155 28.4841 45.4108 28.2283 45.4108 27.9144V23.2524C45.4108 22.9385 45.155 22.6827 44.8411 22.6827H43.5507C43.2369 22.6827 42.9811 22.9385 42.9811 23.2524C42.9811 23.5779 42.7252 23.8337 42.3997 23.8337C42.0742 23.8337 41.8184 23.5779 41.8184 23.2524C41.8184 22.2992 42.5971 21.52 43.5507 21.52H44.8411C45.7943 21.52 46.5735 22.2988 46.5735 23.2524V27.9144C46.5735 28.868 45.7947 29.6468 44.8411 29.6468Z" fill="#FAFF00"/>
<path d="M49.3291 28.1932H45.9925C45.667 28.1932 45.4111 27.9373 45.4111 27.6118C45.4111 27.2863 45.667 27.0305 45.9925 27.0305H48.7478V24.1241H45.9925C45.667 24.1241 45.4111 23.8683 45.4111 23.5428C45.4111 23.2172 45.667 22.9614 45.9925 22.9614H49.3291C49.6547 22.9614 49.9105 23.2172 49.9105 23.5428V27.6119C49.9105 27.9374 49.6547 28.1932 49.3291 28.1932Z" fill="#FAFF00"/>
</svg>
